STARTFONT 2.1
FONT -Bitstream-Dutch 801-Medium-R-Normal--14-100-100-100-P-107-DEC-DECmath_Symbol
SIZE 10 100 100
FONTBOUNDINGBOX 18 24 -3 -13

STARTPROPERTIES 26
FONTNAME_REGISTRY ""
FAMILY_NAME "Dutch 801"
FOUNDRY "Bitstream"
WEIGHT_NAME "Medium"
SETWIDTH_NAME "Normal"
SLANT "R"
ADD_STYLE_NAME ""
PIXEL_SIZE 14
POINT_SIZE 100
RESOLUTION_X 100
RESOLUTION_Y 100
SPACING "P"
AVERAGE_WIDTH 107
CHARSET_REGISTRY "DEC"
CHARSET_ENCODING "DECmath_Symbol"
CAP_HEIGHT 10
X_HEIGHT 0
CHARSET_COLLECTIONS "DEC-DECmath_Symbol"
FULL_NAME "Dutch 801 Roman DECmath_Symbol"
COPYRIGHT "Copyright 1989 by Bitstream, Inc. and Digital Equipment Corp. All rights reserved."
NOTICE "Dutch 801 is a registered trademark of Bitstream, Inc."
WEIGHT 10
QUAD_WIDTH 9
DEFAULT_CHAR 32
FONT_DESCENT 13
FONT_ASCENT 11
ENDPROPERTIES

CHARS 128

STARTCHAR arrowleft
ENCODING 32
SWIDTH 1000 0
DWIDTH 14 0
BBX 12 5 1 2
BITMAP
2000
4000
FFF0
4000
2000
ENDCHAR

STARTCHAR arrowright
ENCODING 33
SWIDTH 1000 0
DWIDTH 14 0
BBX 12 5 1 2
BITMAP
0040
0020
FFF0
0020
0040
ENDCHAR

STARTCHAR arrowup
ENCODING 34
SWIDTH 500 0
DWIDTH 7 0
BBX 5 12 1 -2
BITMAP
20
70
A8
20
20
20
20
20
20
20
20
20
ENDCHAR

STARTCHAR arrowdown
ENCODING 35
SWIDTH 500 0
DWIDTH 7 0
BBX 5 12 1 -2
BITMAP
20
20
20
20
20
20
20
20
20
A8
70
20
ENDCHAR

STARTCHAR arrowboth
ENCODING 36
SWIDTH 1000 0
DWIDTH 14 0
BBX 12 5 1 2
BITMAP
2040
4020
FFF0
4020
2040
ENDCHAR

STARTCHAR arrownortheast
ENCODING 37
SWIDTH 1000 0
DWIDTH 14 0
BBX 12 12 1 -2
BITMAP
00F0
0030
0050
0090
0100
0200
0400
0800
1000
2000
4000
8000
ENDCHAR

STARTCHAR arrowsoutheast
ENCODING 38
SWIDTH 1000 0
DWIDTH 14 0
BBX 12 12 1 -2
BITMAP
8000
4000
2000
1000
0800
0400
0200
0100
0090
0050
0030
00F0
ENDCHAR

STARTCHAR similarequal
ENCODING 39
SWIDTH 1000 0
DWIDTH 14 0
BBX 10 5 2 2
BITMAP
7840
8780
0000
0000
FFC0
ENDCHAR

STARTCHAR arrowdblleft
ENCODING 40
SWIDTH 1000 0
DWIDTH 14 0
BBX 13 5 1 2
BITMAP
2000
7FF8
8000
7FF8
2000
ENDCHAR

STARTCHAR arrowdblright
ENCODING 41
SWIDTH 1000 0
DWIDTH 14 0
BBX 13 5 1 2
BITMAP
0020
FFF0
0008
FFF0
0020
ENDCHAR

STARTCHAR arrowdblup
ENCODING 42
SWIDTH 500 0
DWIDTH 7 0
BBX 5 13 1 -3
BITMAP
20
50
D8
50
50
50
50
50
50
50
50
50
50
ENDCHAR

STARTCHAR arrowdbldown
ENCODING 43
SWIDTH 500 0
DWIDTH 7 0
BBX 5 13 1 -3
BITMAP
50
50
50
50
50
50
50
50
50
50
D8
50
20
ENDCHAR

STARTCHAR arrowdblboth
ENCODING 44
SWIDTH 1000 0
DWIDTH 14 0
BBX 13 5 1 2
BITMAP
2020
7FF0
8008
7FF0
2020
ENDCHAR

STARTCHAR arrownorthwest
ENCODING 45
SWIDTH 1000 0
DWIDTH 14 0
BBX 12 12 1 -2
BITMAP
F000
C000
A000
9000
0800
0400
0200
0100
0080
0040
0020
0010
ENDCHAR

STARTCHAR arrowsouthwest
ENCODING 46
SWIDTH 1000 0
DWIDTH 14 0
BBX 12 12 1 -2
BITMAP
0010
0020
0040
0080
0100
0200
0400
0800
9000
A000
C000
F000
ENDCHAR

STARTCHAR proportional
ENCODING 47
SWIDTH 1000 0
DWIDTH 14 0
BBX 8 5 2 2
BITMAP
63
94
88
94
63
ENDCHAR

STARTCHAR prime
ENCODING 48
SWIDTH 278 0
DWIDTH 4 0
BBX 3 6 1 3
BITMAP
60
60
40
C0
80
80
ENDCHAR

STARTCHAR infinity
ENCODING 49
SWIDTH 833 0
DWIDTH 12 0
BBX 9 5 2 2
BITMAP
6300
9480
8880
9480
6300
ENDCHAR

STARTCHAR element
ENCODING 50
SWIDTH 1000 0
DWIDTH 14 0
BBX 9 9 3 0
BITMAP
3F80
4000
8000
8000
FF80
8000
8000
4000
3F80
ENDCHAR

STARTCHAR suchthat
ENCODING 51
SWIDTH 1000 0
DWIDTH 14 0
BBX 9 9 3 0
BITMAP
FE00
0100
0080
0080
FF80
0080
0080
0100
FE00
ENDCHAR

STARTCHAR trianglelgup
ENCODING 52
SWIDTH 1000 0
DWIDTH 14 0
BBX 11 11 2 0
BITMAP
0400
0400
0A00
0A00
1100
1100
2080
2080
4040
4040
FFE0
ENDCHAR

STARTCHAR trianglelgdown
ENCODING 53
SWIDTH 1000 0
DWIDTH 14 0
BBX 11 11 2 -2
BITMAP
FFE0
4040
4040
2080
2080
1100
1100
0A00
0A00
0400
0400
ENDCHAR

STARTCHAR slashnegate
ENCODING 54
SWIDTH 0 0
DWIDTH 7 0
BBX 6 14 1 -3
BITMAP
04
04
08
08
10
10
10
20
20
20
40
40
80
80
ENDCHAR

STARTCHAR mapsto
ENCODING 55
SWIDTH 0 0
DWIDTH 2 0
BBX 2 5 0 2
BITMAP
80
80
C0
80
80
ENDCHAR

STARTCHAR universal
ENCODING 56
SWIDTH 637 0
DWIDTH 9 0
BBX 9 10 0 0
BITMAP
8080
8080
4100
7F00
4100
2200
2200
1400
1400
0800
ENDCHAR

STARTCHAR existential
ENCODING 57
SWIDTH 639 0
DWIDTH 9 0
BBX 7 10 1 0
BITMAP
FE
02
02
02
FE
02
02
02
02
FE
ENDCHAR

STARTCHAR logicalnot
ENCODING 58
SWIDTH 833 0
DWIDTH 12 0
BBX 8 3 2 3
BITMAP
FF
01
01
ENDCHAR

STARTCHAR emptyset
ENCODING 59
SWIDTH 500 0
DWIDTH 7 0
BBX 7 12 0 -1
BITMAP
02
3A
44
44
8A
92
92
A2
44
44
B8
80
ENDCHAR

STARTCHAR Rfraktur
ENCODING 60
SWIDTH 794 0
DWIDTH 10 0
BBX 10 10 0 0
BITMAP
3300
5D80
48C0
2880
AF00
4900
0900
0900
2980
1100
ENDCHAR

STARTCHAR Ifraktur
ENCODING 61
SWIDTH 699 0
DWIDTH 10 0
BBX 8 11 1 0
BITMAP
30
59
47
40
27
04
02
03
61
BA
0C
ENDCHAR

STARTCHAR latticetop
ENCODING 62
SWIDTH 778 0
DWIDTH 11 0
BBX 9 10 1 0
BITMAP
FF80
0800
0800
0800
0800
0800
0800
0800
0800
0800
ENDCHAR

STARTCHAR latticebot
ENCODING 63
SWIDTH 778 0
DWIDTH 11 0
BBX 9 10 1 0
BITMAP
0800
0800
0800
0800
0800
0800
0800
0800
0800
FF80
ENDCHAR

STARTCHAR aleph
ENCODING 64
SWIDTH 602 0
DWIDTH 8 0
BBX 7 10 1 0
BITMAP
84
86
C2
6C
70
98
8C
CC
C6
82
ENDCHAR

STARTCHAR Acursive
ENCODING 65
SWIDTH 630 0
DWIDTH 9 0
BBX 9 11 -1 -1
BITMAP
0180
0100
0300
0500
0500
0900
0F80
5100
9100
A180
C000
ENDCHAR

STARTCHAR Bcursive
ENCODING 66
SWIDTH 613 0
DWIDTH 8 0
BBX 8 10 0 0
BITMAP
32
15
19
32
26
3C
62
42
96
8C
ENDCHAR

STARTCHAR Ccursive
ENCODING 67
SWIDTH 546 0
DWIDTH 8 0
BBX 8 10 0 0
BITMAP
06
0B
11
22
40
40
80
84
C8
70
ENDCHAR

STARTCHAR Dcursive
ENCODING 68
SWIDTH 722 0
DWIDTH 10 0
BBX 10 10 0 0
BITMAP
0F00
3880
4840
9040
9040
1040
2080
2080
2300
5C00
ENDCHAR

STARTCHAR Ecursive
ENCODING 69
SWIDTH 535 0
DWIDTH 7 0
BBX 8 10 0 0
BITMAP
0C
13
22
20
1C
30
40
84
C8
70
ENDCHAR

STARTCHAR Fcursive
ENCODING 70
SWIDTH 558 0
DWIDTH 8 0
BBX 7 10 1 0
BITMAP
30
4E
44
04
38
08
08
90
90
60
ENDCHAR

STARTCHAR Gcursive
ENCODING 71
SWIDTH 595 0
DWIDTH 8 0
BBX 8 13 0 -3
BITMAP
06
0B
11
22
40
4E
84
8C
D8
68
10
50
20
ENDCHAR

STARTCHAR Hcursive
ENCODING 72
SWIDTH 722 0
DWIDTH 10 0
BBX 13 10 -3 0
BITMAP
0708
0210
0210
0420
0FF0
0420
0820
0840
1040
E0E0
ENDCHAR

STARTCHAR Icursive
ENCODING 73
SWIDTH 431 0
DWIDTH 6 0
BBX 6 10 0 0
BITMAP
3C
48
48
08
10
10
10
A0
A0
C0
ENDCHAR

STARTCHAR Jcursive
ENCODING 74
SWIDTH 475 0
DWIDTH 7 0
BBX 8 12 -1 -2
BITMAP
0F
11
22
22
24
04
08
08
90
90
A0
40
ENDCHAR

STARTCHAR Kcursive
ENCODING 75
SWIDTH 676 0
DWIDTH 9 0
BBX 10 10 -1 0
BITMAP
1840
3080
1100
2200
2400
7800
5000
4800
CD00
8600
ENDCHAR

STARTCHAR Lcursive
ENCODING 76
SWIDTH 602 0
DWIDTH 8 0
BBX 10 11 -2 -1
BITMAP
0180
02C0
0480
0880
0800
0800
1000
1000
7880
CD00
0600
ENDCHAR

STARTCHAR Mcursive
ENCODING 77
SWIDTH 896 0
DWIDTH 12 0
BBX 14 12 -2 -2
BITMAP
0204
0E04
020C
0214
0628
0728
0948
0950
5194
9118
A000
C000
ENDCHAR

STARTCHAR Ncursive
ENCODING 78
SWIDTH 722 0
DWIDTH 10 0
BBX 12 12 -2 -2
BITMAP
0C20
1470
0410
0E10
0A10
0B20
1120
1140
1180
A080
A000
4000
ENDCHAR

STARTCHAR Ocursive
ENCODING 79
SWIDTH 671 0
DWIDTH 9 0
BBX 9 10 0 0
BITMAP
0E00
1300
1180
4080
4080
8080
8100
C100
6600
3800
ENDCHAR

STARTCHAR Pcursive
ENCODING 80
SWIDTH 593 0
DWIDTH 8 0
BBX 8 10 0 0
BITMAP
32
15
19
31
21
26
78
40
80
C0
ENDCHAR

STARTCHAR Qcursive
ENCODING 81
SWIDTH 676 0
DWIDTH 9 0
BBX 10 11 -1 -1
BITMAP
0780
18C0
2040
4040
4040
6480
3900
0200
1C00
E180
1E00
ENDCHAR

STARTCHAR Rcursive
ENCODING 82
SWIDTH 662 0
DWIDTH 9 0
BBX 9 10 0 0
BITMAP
3300
1580
1880
3080
2100
3E00
6800
4C00
8500
C600
ENDCHAR

STARTCHAR Scursive
ENCODING 83
SWIDTH 523 0
DWIDTH 7 0
BBX 7 10 0 0
BITMAP
1C
26
22
20
10
08
44
84
C8
70
ENDCHAR

STARTCHAR Tcursive
ENCODING 84
SWIDTH 650 0
DWIDTH 9 0
BBX 9 10 0 0
BITMAP
6380
9E00
0800
1000
2000
6000
4200
4400
6800
3000
ENDCHAR

STARTCHAR Ucursive
ENCODING 85
SWIDTH 699 0
DWIDTH 10 0
BBX 10 10 0 0
BITMAP
1840
70C0
1080
2180
2100
4300
4600
8A00
D280
6300
ENDCHAR

STARTCHAR Vcursive
ENCODING 86
SWIDTH 569 0
DWIDTH 8 0
BBX 7 10 1 0
BITMAP
22
E2
22
24
64
48
48
90
A0
C0
ENDCHAR

STARTCHAR Wcursive
ENCODING 87
SWIDTH 792 0
DWIDTH 11 0
BBX 11 10 0 0
BITMAP
2220
E220
2620
2440
6440
4C80
4880
9900
AA00
CC00
ENDCHAR

STARTCHAR Xcursive
ENCODING 88
SWIDTH 722 0
DWIDTH 10 0
BBX 11 11 -1 -1
BITMAP
0840
14A0
2480
0500
0200
0200
0600
4A40
9280
A180
4000
ENDCHAR

STARTCHAR Ycursive
ENCODING 89
SWIDTH 625 0
DWIDTH 9 0
BBX 8 13 1 -3
BITMAP
61
A2
22
24
44
48
48
98
B0
D0
20
A0
40
ENDCHAR

STARTCHAR Zcursive
ENCODING 90
SWIDTH 588 0
DWIDTH 8 0
BBX 10 11 -1 -1
BITMAP
0C40
1380
0100
0200
0400
0800
1000
2000
4100
F200
1C00
ENDCHAR

STARTCHAR union
ENCODING 91
SWIDTH 1000 0
DWIDTH 14 0
BBX 9 9 3 0
BITMAP
8080
8080
8080
8080
8080
8080
8080
4100
3E00
ENDCHAR

STARTCHAR intersection
ENCODING 92
SWIDTH 1000 0
DWIDTH 14 0
BBX 9 9 3 0
BITMAP
3E00
4100
8080
8080
8080
8080
8080
8080
8080
ENDCHAR

STARTCHAR unionmultiset
ENCODING 93
SWIDTH 1000 0
DWIDTH 14 0
BBX 9 9 3 0
BITMAP
8080
8080
8880
8880
BE80
8880
8880
4100
3E00
ENDCHAR

STARTCHAR logicaland
ENCODING 94
SWIDTH 1000 0
DWIDTH 14 0
BBX 9 10 3 0
BITMAP
0800
0800
1400
1400
2200
2200
4100
4100
8080
8080
ENDCHAR

STARTCHAR logicalor
ENCODING 95
SWIDTH 1000 0
DWIDTH 14 0
BBX 9 10 3 0
BITMAP
8080
8080
4100
4100
2200
2200
1400
1400
0800
0800
ENDCHAR

STARTCHAR turnstileleft
ENCODING 96
SWIDTH 611 0
DWIDTH 8 0
BBX 7 10 1 0
BITMAP
80
80
80
80
FE
80
80
80
80
80
ENDCHAR

STARTCHAR turnstileright
ENCODING 97
SWIDTH 611 0
DWIDTH 8 0
BBX 7 10 1 0
BITMAP
02
02
02
02
FE
02
02
02
02
02
ENDCHAR

STARTCHAR bracketleftbt
ENCODING 98
SWIDTH 528 0
DWIDTH 7 0
BBX 3 14 3 -3
BITMAP
80
80
80
80
80
80
80
80
80
80
80
80
80
E0
ENDCHAR

STARTCHAR bracketrightbt
ENCODING 99
SWIDTH 528 0
DWIDTH 7 0
BBX 3 14 1 -3
BITMAP
20
20
20
20
20
20
20
20
20
20
20
20
20
E0
ENDCHAR

STARTCHAR bracketlefttp
ENCODING 100
SWIDTH 528 0
DWIDTH 7 0
BBX 3 14 3 -3
BITMAP
E0
80
80
80
80
80
80
80
80
80
80
80
80
80
ENDCHAR

STARTCHAR bracketrighttp
ENCODING 101
SWIDTH 528 0
DWIDTH 7 0
BBX 3 14 1 -3
BITMAP
E0
20
20
20
20
20
20
20
20
20
20
20
20
20
ENDCHAR

STARTCHAR braceleft
ENCODING 102
SWIDTH 500 0
DWIDTH 7 0
BBX 5 14 1 -3
BITMAP
18
20
20
20
20
60
80
60
20
20
20
20
20
18
ENDCHAR

STARTCHAR braceright
ENCODING 103
SWIDTH 500 0
DWIDTH 7 0
BBX 5 14 1 -3
BITMAP
C0
20
20
20
20
30
08
30
20
20
20
20
20
C0
ENDCHAR

STARTCHAR angleleft
ENCODING 104
SWIDTH 333 0
DWIDTH 5 0
BBX 4 14 1 -3
BITMAP
10
10
20
20
40
40
80
80
40
40
20
20
10
10
ENDCHAR

STARTCHAR angleright
ENCODING 105
SWIDTH 333 0
DWIDTH 5 0
BBX 4 14 1 -3
BITMAP
80
80
40
40
20
20
10
10
20
20
40
40
80
80
ENDCHAR

STARTCHAR bar
ENCODING 106
SWIDTH 602 0
DWIDTH 8 0
BBX 1 14 4 -3
BITMAP
80
80
80
80
80
80
80
80
80
80
80
80
80
80
ENDCHAR

STARTCHAR bardbl
ENCODING 107
SWIDTH 1000 0
DWIDTH 14 0
BBX 4 14 5 -3
BITMAP
90
90
90
90
90
90
90
90
90
90
90
90
90
90
ENDCHAR

STARTCHAR arrowupdown
ENCODING 108
SWIDTH 500 0
DWIDTH 7 0
BBX 5 14 1 -3
BITMAP
20
70
A8
20
20
20
20
20
20
20
20
A8
70
20
ENDCHAR

STARTCHAR arrowdblupdown
ENCODING 109
SWIDTH 500 0
DWIDTH 7 0
BBX 5 14 1 -3
BITMAP
20
50
D8
50
50
50
50
50
50
50
50
D8
50
20
ENDCHAR

STARTCHAR backslash
ENCODING 110
SWIDTH 500 0
DWIDTH 7 0
BBX 6 14 1 -3
BITMAP
80
80
40
40
20
20
20
10
10
10
08
08
04
04
ENDCHAR

STARTCHAR wreathproduct
ENCODING 111
SWIDTH 278 0
DWIDTH 4 0
BBX 3 8 1 -1
BITMAP
C0
20
20
40
80
80
80
60
ENDCHAR

STARTCHAR radical
ENCODING 112
SWIDTH 1000 0
DWIDTH 14 0
BBX 13 13 1 -13
BITMAP
0008
0010
0010
0020
6020
A040
3040
1080
1880
0900
0D00
0600
0600
ENDCHAR

STARTCHAR coproduct
ENCODING 113
SWIDTH 768 0
DWIDTH 11 0
BBX 9 10 1 0
BITMAP
E380
4100
4100
4100
4100
4100
4100
4100
4100
FF80
ENDCHAR

STARTCHAR gradient
ENCODING 114
SWIDTH 713 0
DWIDTH 10 0
BBX 9 9 0 0
BITMAP
FF80
6100
2100
3200
3200
1400
1C00
1800
0800
ENDCHAR

STARTCHAR integral
ENCODING 115
SWIDTH 274 0
DWIDTH 4 0
BBX 5 13 0 -2
BITMAP
18
28
20
20
20
20
20
20
20
20
20
A0
C0
ENDCHAR

STARTCHAR unionsqr
ENCODING 116
SWIDTH 1000 0
DWIDTH 14 0
BBX 9 9 3 0
BITMAP
8080
8080
8080
8080
8080
8080
8080
8080
FF80
ENDCHAR

STARTCHAR intersectsqr
ENCODING 117
SWIDTH 1000 0
DWIDTH 14 0
BBX 9 9 3 0
BITMAP
FF80
8080
8080
8080
8080
8080
8080
8080
8080
ENDCHAR

STARTCHAR reflsubsetsq
ENCODING 118
SWIDTH 1000 0
DWIDTH 14 0
BBX 9 11 3 -2
BITMAP
FF80
8000
8000
8000
8000
8000
8000
8000
FF80
0000
FF80
ENDCHAR

STARTCHAR reflsupersetsq
ENCODING 119
SWIDTH 1000 0
DWIDTH 14 0
BBX 9 11 3 -2
BITMAP
FF80
0080
0080
0080
0080
0080
0080
0080
FF80
0000
FF80
ENDCHAR

STARTCHAR section
ENCODING 120
SWIDTH 500 0
DWIDTH 7 0
BBX 5 11 1 -1
BITMAP
70
88
80
60
90
88
48
30
08
88
70
ENDCHAR

STARTCHAR dagger
ENCODING 121
SWIDTH 500 0
DWIDTH 7 0
BBX 5 12 1 -2
BITMAP
20
20
20
F8
20
20
20
20
20
20
20
20
ENDCHAR

STARTCHAR daggerdbl
ENCODING 122
SWIDTH 500 0
DWIDTH 7 0
BBX 5 12 1 -2
BITMAP
20
20
20
F8
20
20
20
20
F8
20
20
20
ENDCHAR

STARTCHAR paragraph
ENCODING 123
SWIDTH 500 0
DWIDTH 7 0
BBX 7 12 0 -2
BITMAP
3E
74
F4
F4
74
34
14
14
14
14
14
14
ENDCHAR

STARTCHAR clubsuit
ENCODING 124
SWIDTH 1150 0
DWIDTH 16 0
BBX 13 12 1 -1
BITMAP
0700
0F80
0F80
0F80
7770
FAF8
FFF8
FAF8
7270
0200
0200
0F80
ENDCHAR

STARTCHAR diamondsuit
ENCODING 125
SWIDTH 1148 0
DWIDTH 16 0
BBX 11 12 3 -1
BITMAP
0400
0A00
1100
2080
4040
8020
8020
4040
2080
1100
0A00
0400
ENDCHAR

STARTCHAR heartsuit
ENCODING 126
SWIDTH 1147 0
DWIDTH 16 0
BBX 13 12 2 -1
BITMAP
38E0
4510
8208
8008
8008
8008
4010
2020
1040
0880
0500
0200
ENDCHAR

STARTCHAR spadesuit
ENCODING 127
SWIDTH 1148 0
DWIDTH 16 0
BBX 11 12 3 -1
BITMAP
0400
0E00
1F00
3F80
7FC0
7FC0
FFE0
FFE0
FFE0
75C0
0400
1F00
ENDCHAR

STARTCHAR minus
ENCODING 160
SWIDTH 833 0
DWIDTH 12 0
BBX 8 1 2 4
BITMAP
FF
ENDCHAR

STARTCHAR dotmath
ENCODING 161
SWIDTH 572 0
DWIDTH 8 0
BBX 2 2 3 4
BITMAP
C0
C0
ENDCHAR

STARTCHAR multiply
ENCODING 162
SWIDTH 833 0
DWIDTH 12 0
BBX 8 8 2 0
BITMAP
81
42
24
18
18
24
42
81
ENDCHAR

STARTCHAR asteriskmath
ENCODING 163
SWIDTH 1000 0
DWIDTH 14 0
BBX 5 6 5 1
BITMAP
20
A8
70
70
A8
20
ENDCHAR

STARTCHAR divide
ENCODING 164
SWIDTH 833 0
DWIDTH 12 0
BBX 8 7 2 1
BITMAP
18
18
00
FF
00
18
18
ENDCHAR

STARTCHAR diamondop
ENCODING 165
SWIDTH 500 0
DWIDTH 7 0
BBX 7 7 0 0
BITMAP
10
28
44
82
44
28
10
ENDCHAR

STARTCHAR plusminus
ENCODING 166
SWIDTH 833 0
DWIDTH 12 0
BBX 9 8 2 0
BITMAP
0800
0800
0800
FF80
0800
0800
0800
FF80
ENDCHAR

STARTCHAR minusplus
ENCODING 167
SWIDTH 833 0
DWIDTH 12 0
BBX 9 8 2 0
BITMAP
FF80
0800
0800
0800
FF80
0800
0800
0800
ENDCHAR

STARTCHAR circleplus
ENCODING 168
SWIDTH 1000 0
DWIDTH 14 0
BBX 11 11 2 -1
BITMAP
0E00
3580
4440
4440
8420
FFE0
8420
4440
4440
3580
0E00
ENDCHAR

STARTCHAR circleminus
ENCODING 169
SWIDTH 1000 0
DWIDTH 14 0
BBX 11 11 2 -1
BITMAP
0E00
3180
4040
4040
8020
FFE0
8020
4040
4040
3180
0E00
ENDCHAR

STARTCHAR circlemultiply
ENCODING 170
SWIDTH 1000 0
DWIDTH 14 0
BBX 11 11 2 -1
BITMAP
0E00
3180
60C0
5140
8A20
8420
8A20
5140
60C0
3180
0E00
ENDCHAR

STARTCHAR circledivide
ENCODING 171
SWIDTH 1000 0
DWIDTH 14 0
BBX 11 11 2 -1
BITMAP
0E00
3180
40C0
4140
8220
8420
8820
5040
6040
3180
0E00
ENDCHAR

STARTCHAR circledot
ENCODING 172
SWIDTH 1000 0
DWIDTH 14 0
BBX 11 11 2 -1
BITMAP
0E00
3180
4040
4040
8020
8420
8020
4040
4040
3180
0E00
ENDCHAR

STARTCHAR overlaycircle
ENCODING 173
SWIDTH 1000 0
DWIDTH 14 0
BBX 14 14 0 -3
BITMAP
0780
1860
2010
4008
4008
8004
8004
8004
8004
4008
4008
2010
1860
0780
ENDCHAR

STARTCHAR circleop
ENCODING 174
SWIDTH 500 0
DWIDTH 7 0
BBX 5 5 1 0
BITMAP
70
88
88
88
70
ENDCHAR

STARTCHAR bullet
ENCODING 175
SWIDTH 500 0
DWIDTH 7 0
BBX 5 5 1 0
BITMAP
70
F8
F8
F8
70
ENDCHAR

STARTCHAR hardyequiv
ENCODING 176
SWIDTH 1000 0
DWIDTH 14 0
BBX 8 5 3 2
BITMAP
C3
3C
00
3C
C3
ENDCHAR

STARTCHAR equivalence
ENCODING 177
SWIDTH 1000 0
DWIDTH 14 0
BBX 8 7 3 1
BITMAP
FF
00
00
FF
00
00
FF
ENDCHAR

STARTCHAR reflexsubset
ENCODING 178
SWIDTH 1000 0
DWIDTH 14 0
BBX 9 11 3 -2
BITMAP
3F80
4000
8000
8000
8000
8000
8000
4000
3F80
0000
FF80
ENDCHAR

STARTCHAR reflexsuperset
ENCODING 179
SWIDTH 1000 0
DWIDTH 14 0
BBX 9 11 3 -2
BITMAP
FE00
0100
0080
0080
0080
0080
0080
0100
FE00
0000
FF80
ENDCHAR

STARTCHAR lessequal
ENCODING 180
SWIDTH 1000 0
DWIDTH 14 0
BBX 8 9 3 0
BITMAP
03
0C
30
C0
30
0C
03
00
FF
ENDCHAR

STARTCHAR greaterequal
ENCODING 181
SWIDTH 1000 0
DWIDTH 14 0
BBX 8 9 3 0
BITMAP
C0
30
0C
03
0C
30
C0
00
FF
ENDCHAR

STARTCHAR precedesequal
ENCODING 182
SWIDTH 1000 0
DWIDTH 14 0
BBX 8 9 3 0
BITMAP
01
02
1C
E0
1C
02
01
00
FF
ENDCHAR

STARTCHAR followsequal
ENCODING 183
SWIDTH 1000 0
DWIDTH 14 0
BBX 8 9 3 0
BITMAP
80
40
38
07
38
40
80
00
FF
ENDCHAR

STARTCHAR similar
ENCODING 184
SWIDTH 1000 0
DWIDTH 14 0
BBX 10 2 2 4
BITMAP
7840
8780
ENDCHAR

STARTCHAR approxequal
ENCODING 185
SWIDTH 1000 0
DWIDTH 14 0
BBX 10 5 2 2
BITMAP
7840
8780
0000
7840
8780
ENDCHAR

STARTCHAR propersubset
ENCODING 186
SWIDTH 1000 0
DWIDTH 14 0
BBX 9 9 3 0
BITMAP
3F80
4000
8000
8000
8000
8000
8000
4000
3F80
ENDCHAR

STARTCHAR propersuperset
ENCODING 187
SWIDTH 1000 0
DWIDTH 14 0
BBX 9 9 3 0
BITMAP
FE00
0100
0080
0080
0080
0080
0080
0100
FE00
ENDCHAR

STARTCHAR muchless
ENCODING 188
SWIDTH 1000 0
DWIDTH 14 0
BBX 13 9 1 0
BITMAP
0108
0630
18C0
6300
8400
6300
18C0
0630
0108
ENDCHAR

STARTCHAR muchgreater
ENCODING 189
SWIDTH 1000 0
DWIDTH 14 0
BBX 13 9 1 0
BITMAP
8400
6300
18C0
0630
0108
0630
18C0
6300
8400
ENDCHAR

STARTCHAR precedes
ENCODING 190
SWIDTH 1000 0
DWIDTH 14 0
BBX 8 7 3 1
BITMAP
01
02
1C
E0
1C
02
01
ENDCHAR

STARTCHAR follows
ENCODING 191
SWIDTH 1000 0
DWIDTH 14 0
BBX 8 7 3 1
BITMAP
80
40
38
07
38
40
80
ENDCHAR
ENDFONT
